#!OML:ASF F:\VICON\USERDATA\INSTALL\rory3\rory3.ASF
:FULLY-SPECIFIED
:DEGREES
1456
root -4.26376 17.4779 -2.18638 -189.188 -139.229 190.145
lowerback 5.37681 0.13402 -7.80434
upperback 1.24587 -0.177396 5.38932
thorax -1.68011 -0.0675642 10.178
lowerneck -15.5787 -1.23955 -13.3502
upperneck -19.9812 0.874754 12.159
head -3.56503 0.745333 6.17758
rclavicle 3.3197e-014 -6.36111e-015
rhumerus 20.1951 2.05262 -22.3874
rradius 94.241
rwrist 12.6838
rhand -34.9453 3.91961
rfingers 7.12502
rthumb -8.09202 -25.9055
lclavicle 3.3197e-014 -6.36111e-015
lhumerus 55.0549 33.1731 13.7515
lradius 52.0037
lwrist -4.97804
lhand -30.5376 22.8538
lfingers 7.12502
lthumb -3.83662 52.799
rfemur -13.5968 4.66349 2.17895
rtibia 39.0466
rfoot -18.0653 -0.0290874
rtoes 0.786255
lfemur -1.32266 -4.57196 -20.4244
ltibia 23.7787
lfoot -12.3935 3.42563
ltoes -22.0249
1457
root -4.16871 17.4603 -2.16499 -189.388 -138.981 190.409
lowerback 5.49829 0.109062 -8.34264
upperback 1.3578 -0.248039 5.52412
thorax -1.60931 -0.110894 10.657
lowerneck -15.4096 -1.10441 -13.7142
upperneck -20.6565 1.14783 12.6026
head -3.82782 0.878869 6.41441
rclavicle -6.44062e-014 -1.59028e-014
rhumerus 19.0899 2.38206 -22.5061
rradius 93.5314
rwrist 11.889
rhand -34.2762 4.02114
rfingers 7.12502
rthumb -7.44619 -25.8278
lclavicle -6.44062e-014 -1.59028e-014
lhumerus 54.4936 32.3554 13.6984
lradius 52.2428
lwrist -5.68924
lhand -29.5369 22.3486
lfingers 7.12502
lthumb -2.87018 52.3091
rfemur -13.9702 4.95747 1.66001
rtibia 39.227
rfoot -17.9302 -0.118979
rtoes 0.158032
lfemur -1.20912 -4.05794 -20.9496
ltibia 23.3976
lfoot -12.9184 3.5007
ltoes -20.957
1458
root -4.07362 17.4469 -2.14648 -189.377 -138.635 190.404
lowerback 5.29915 -0.0324233 -8.55296
upperback 1.96925 -0.440745 5.50908
thorax -0.802938 -0.285087 10.7693
lowerneck -16.8061 -0.990011 -12.8847
upperneck -20.8281 1.27303 12.2645
head -3.6989 0.911124 6.17129
rclavicle -4.01545e-014 1.59028e-014
rhumerus 18.6982 1.90073 -23.3839
rradius 92.5657
rwrist 11.6592
rhand -33.5226 4.62566
rfingers 7.12502
rthumb -6.71868 -25.2477
lclavicle -4.01545e-014 1.59028e-014
lhumerus 53.8174 32.412 12.9273
lradius 52.5481
lwrist -6.02189
lhand -28.996 21.974
lfingers 7.12502
lthumb -2.34785 51.9408
rfemur -14.4203 5.32224 1.40199
rtibia 39.4061
rfoot -17.7493 -0.207219
rtoes -0.0690994
lfemur -1.17437 -3.5388 -21.1999
ltibia 23.053
lfoot -13.1198 3.69574
ltoes -20.0388
1459
root -3.97956 17.4319 -2.12842 -189.429 -138.323 190.594
lowerback 5.21056 -0.129919 -8.79706
upperback 1.99938 -0.577865 5.55581
thorax -0.682639 -0.364512 10.9747
lowerneck -16.7513 -0.884372 -12.9191
upperneck -21.0775 1.42077 12.3526
head -3.80209 0.974927 6.2173
rclavicle -7.97127e-014 -6.36111e-014
rhumerus 17.6885 2.39337 -23.7998
rradius 91.7715
rwrist 11.7828
rhand -33.5968 4.5787
rfingers 7.12502
rthumb -6.79032 -25.2924
lclavicle -7.97127e-014 -6.36111e-014
lhumerus 52.6866 31.3403 12.1533
lradius 52.9936
lwrist -6.13324
lhand -28.7198 21.3303
lfingers 7.12502
lthumb -2.08108 51.2999
rfemur -14.9352 5.51978 0.947797
rtibia 39.5554
rfoot -17.4532 -0.221075
rtoes 0.182134
lfemur -1.25823 -3.11886 -21.5851
ltibia 22.8104
lfoot -13.2729 3.92249
ltoes -20.0872
1460
root -3.88463 17.4223 -2.10842 -189.501 -138.031 190.892
lowerback 5.35053 -0.0823477 -9.03124
upperback 1.3731 -0.531707 5.72233
thorax -1.42948 -0.264926 11.3114
lowerneck -15.1716 -0.881837 -13.66
upperneck -21.3565 1.39283 12.4828
head -4.11714 0.975585 6.38947
rclavicle -2.24627e-014 -6.67916e-014
rhumerus 15.9163 3.74357 -23.5335
rradius 91.0391
rwrist 11.8844
rhand -34.071 4.58686
rfingers 7.12502
rthumb -7.2481 -25.269
lclavicle -2.24627e-014 -6.67916e-014
lhumerus 51.6503 29.0748 12.0077
lradius 53.4165
lwrist -6.37911
lhand -28.084 20.2485
lfingers 7.12502
lthumb -1.467 50.2232
rfemur -15.495 5.5581 0.426034
rtibia 39.6525
rfoot -17.0612 -0.407079
rtoes -1.41186
lfemur -1.47816 -2.80042 -22.0648
ltibia 22.7338
lfoot -13.4648 4.06605
ltoes -20.6485
1461
root -3.78995 17.4153 -2.09459 -189.372 -137.721 190.836
lowerback 5.50546 -0.0699699 -9.00804
upperback 1.02703 -0.522623 5.85602
thorax -1.88421 -0.215092 11.4564
lowerneck -14.2979 -0.894612 -14.0627
upperneck -21.6005 1.35035 12.5982
head -4.31766 0.958841 6.50237
rclavicle -9.93923e-015 3.18055e-014
rhumerus 14.4675 4.59892 -23.5443
rradius 90.3032
rwrist 12.1616
rhand -34.5339 4.48741
rfingers 7.12502
rthumb -7.69491 -25.3526
lclavicle -9.93923e-015 3.18055e-014
lhumerus 50.762 27.2899 11.6276
lradius 53.7404
lwrist -6.48479
lhand -27.7431 19.133
lfingers 7.12502
lthumb -1.13779 49.1097
rfemur -16.0206 5.74107 0.232446
rtibia 39.7283
rfoot -16.7357 -0.564405
rtoes -2.14586
lfemur -1.77959 -2.39215 -22.1956
ltibia 22.7853
lfoot -13.5838 3.93714
ltoes -21.4461
1462
root -3.69783 17.4129 -2.08398 -189.193 -137.441 190.746
lowerback 5.49272 -0.141769 -9.01073
upperback 1.10834 -0.619079 5.87722
thorax -1.76516 -0.27582 11.4869
lowerneck -14.1358 -0.782429 -13.9135
upperneck -22.3552 1.47391 12.5683
head -4.59566 0.994702 6.49188
rclavicle 4.65156e-014 -6.36111e-014
rhumerus 13.536 4.79123 -23.9774
rradius 89.5981
rwrist 12.6146
rhand -35.0001 4.28064
rfingers 7.12502
rthumb -8.14488 -25.5424
lclavicle 4.65156e-014 -6.36111e-014
lhumerus 49.9018 26.2303 10.9208
lradius 54.1086
lwrist -6.58227
lhand -27.7197 18.1297
lfingers 7.12502
lthumb -1.11522 48.1065
rfemur -16.54 5.97985 0.0659768
rtibia 39.762
rfoot -16.4449 -0.73086
rtoes -1.57557
lfemur -2.22818 -1.82769 -22.2062
ltibia 22.9875
lfoot -13.5585 3.44033
ltoes -21.4425
1463
root -3.60972 17.4159 -2.07552 -189.268 -137.089 190.992
lowerback 5.33823 -0.210605 -9.32732
upperback 1.49316 -0.72021 5.75477
thorax -1.24073 -0.378638 11.5371
lowerneck -15.3938 -0.77508 -13.111
upperneck -22.4196 1.47852 12.3958
head -4.42718 0.959214 6.30023
rclavicle -6.30147e-014 -4.45278e-014
rhumerus 13.1936 4.41877 -24.8434
rradius 88.5483
rwrist 13.2368
rhand -35.5078 4.34677
rfingers 7.12502
rthumb -8.63482 -25.4566
lclavicle -6.30147e-014 -4.45278e-014
lhumerus 49.0671 25.6174 10.0893
lradius 54.5576
lwrist -6.95281
lhand -27.8319 17.3848
lfingers 7.12502
lthumb -1.22353 47.361
rfemur -17.0601 6.16045 -0.343173
rtibia 39.7973
rfoot -16.0245 -0.773316
rtoes -0.381528
lfemur -2.70335 -1.20643 -22.4557
ltibia 23.3063
lfoot -13.5115 2.82898
ltoes -20.6622
1464
root -3.52339 17.4252 -2.06882 -189.254 -136.743 191.091
lowerback 5.33017 -0.221823 -9.45897
upperback 1.4701 -0.741712 5.75555
thorax -1.2526 -0.38748 11.6193
lowerneck -15.2713 -0.745958 -12.936
upperneck -22.7937 1.47472 12.3131
head -4.56295 0.935747 6.25308
rclavicle -2.00773e-014 -1.59028e-014
rhumerus 12.3048 4.68455 -25.5216
rradius 87.6479
rwrist 13.7136
rhand -36.1487 4.50585
rfingers 7.12502
rthumb -9.25334 -25.2711
lclavicle -2.00773e-014 -1.59028e-014
lhumerus 48.0906 24.1983 9.3965
lradius 55.2322
lwrist -6.91602
lhand -27.7465 17.0309
lfingers 7.12502
lthumb -1.1411 47.0076
rfemur -17.5509 6.22866 -0.572098
rtibia 39.8415
rfoot -15.4714 -0.89958
rtoes -0.0379749
lfemur -3.20727 -0.525278 -22.5853
ltibia 23.6749
lfoot -13.5242 2.09963
ltoes -20.2296
1465
root -3.43898 17.4311 -2.06793 -189.202 -136.403 191.179
lowerback 5.33399 -0.288018 -9.62592
upperback 1.38555 -0.839634 5.83662
thorax -1.3134 -0.429043 11.8201
lowerneck -14.9007 -0.69467 -13.2699
upperneck -23.2175 1.5599 12.406
head -4.7659 0.98405 6.3576
rclavicle -2.22639e-014 -3.18055e-014
rhumerus 11.4771 5.18094 -26.0604
rradius 86.9718
rwrist 13.9303
rhand -36.586 4.78678
rfingers 7.12502
rthumb -9.67526 -24.971
lclavicle -2.22639e-014 -3.18055e-014
lhumerus 46.7825 22.597 8.94754
lradius 56.1608
lwrist -6.9902
lhand -27.5756 16.4413
lfingers 7.12502
lthumb -0.975992 46.4188
rfemur -18.0994 6.22826 -0.763826
rtibia 39.9287
rfoot -15.0718 -0.898398
rtoes 0.490294
lfemur -3.75396 0.0934396 -22.6963
ltibia 24.051
lfoot -13.4839 1.42465
ltoes -19.4263
1466
root -3.35789 17.4405 -2.07067 -189.189 -136.159 191.351
lowerback 5.31215 -0.419067 -9.87979
upperback 1.30251 -1.02747 5.94396
thorax -1.32988 -0.51902 12.1089
lowerneck -14.7456 -0.683176 -14.0172
upperneck -23.447 1.68338 12.7434
head -4.88264 1.08184 6.61473
rclavicle -7.55382e-014 -2.22639e-014
rhumerus 10.86 5.78434 -26.6933
rradius 86.3475
rwrist 14.0328
rhand -36.7495 5.12936
rfingers 7.12502
rthumb -9.83297 -24.621
lclavicle -7.55382e-014 -2.22639e-014
lhumerus 45.3061 20.9371 8.50059
lradius 57.1252
lwrist -7.05905
lhand -27.7665 16.2327
lfingers 7.12502
lthumb -1.16038 46.2093
rfemur -18.5916 6.19612 -1.0029
rtibia 40.0363
rfoot -14.8504 -0.662199
rtoes 1.62025
lfemur -4.35041 0.62237 -22.9049
ltibia 24.4938
lfoot -13.4562 0.977674
ltoes -18.949
